<svg xmlns="http://www.w3.org/2000/svg" width="129.26" height="129.663" viewBox="0 0 129.26 129.663"><defs><style>.a,.e{fill:none;}.a{stroke:#4d4d4d;stroke-width:3px;}.b{fill:#0071be;}.c{fill:#4db8ff;}.d{stroke:none;}</style></defs><g transform="translate(-1106.278 -1163.389)"><g class="a" transform="translate(1106.278 1228.019) rotate(-45)"><rect class="d" width="91.4" height="91.4" rx="16"/><rect class="e" x="1.5" y="1.5" width="88.4" height="88.4" rx="14.5"/></g><rect class="b" width="27.313" height="27.313" rx="3" transform="translate(1173.283 1273.739) rotate(-45)"/><g transform="translate(-282.864 -364.843)"><g transform="translate(1434.969 1574.398)"><path class="c" d="M42.1,18.733l-12.873-.225L25.482,6.21a1.25,1.25,0,1,0-2.5,0l-4.2,12.173L6.06,18.108a1.3,1.3,0,0,0-1.2.85,1.25,1.25,0,0,0,.425,1.4l10.273,7.724-4.2,12.173a1.225,1.225,0,0,0,.45,1.4,1.2,1.2,0,0,0,1.45,0l10.548-7.349,10.273,7.749a1.35,1.35,0,0,0,.75.25,1.25,1.25,0,0,0,1.2-1.625l-3.774-12.3L42.8,21.008a1.275,1.275,0,0,0,.475-1.4,1.2,1.2,0,0,0-1.175-.875ZM30.082,26.857a1.225,1.225,0,0,0-.475,1.375l2.9,9.5-7.924-5.974a1.35,1.35,0,0,0-.75-.25,1.3,1.3,0,0,0-.725.225l-8.124,5.824,3.225-9.374a1.275,1.275,0,0,0-.425-1.425l-7.924-6.1,10,.175a1.275,1.275,0,0,0,1.2-.825l3.225-9.4,2.825,9.449a1.25,1.25,0,0,0,1.175.875l10,.175Z" transform="translate(-4.793 -4.96)"/></g><path class="c" d="M-10742.963,4076.875h12.663l4.71-12.22,3.828,12.22h13.988l-11.043,8.1,3.534,13.1-10.308-7.656-11.483,7.656,4.27-13.1Z" transform="translate(12180.078 -2487.979)"/></g></g></svg>