<svg xmlns="http://www.w3.org/2000/svg" width="129.26" height="129.663" viewBox="0 0 129.26 129.663"><defs><style>.a,.n{fill:none;}.a{stroke:#4d4d4d;stroke-width:3px;}.b{fill:#0071be;}.c{fill:#4db8ff;}.d{fill:#676e87;}.e{fill:#63ea86;}.f{fill:#3ce568;}.g{fill:#ffcd85;}.h{fill:#595f74;}.i{fill:#ffc166;}.j{fill:#ff8e66;}.k{fill:#ff7c4e;}.l{fill:#66c1ff;}.m{fill:#4eb7ff;}.o{stroke:none;}</style></defs><g transform="translate(-1456.278 -1163.389)"><g class="a" transform="translate(1456.278 1228.019) rotate(-45)"><rect class="o" width="91.4" height="91.4" rx="16"/><rect class="n" x="1.5" y="1.5" width="88.4" height="88.4" rx="14.5"/></g><rect class="b" width="27.313" height="27.313" rx="3" transform="translate(1523.283 1273.739) rotate(-45)"/><g transform="translate(143.133 -393.853)"><path class="c" d="M56.978,48a8.978,8.978,0,1,0,8.978,8.978A8.977,8.977,0,0,0,56.978,48ZM55.593,60.16a.6.6,0,0,1-.38.19.622.622,0,0,1-.384-.194l-2.417-2.417.768-.768,2.037,2.037L60.6,53.581l.755.781Z" transform="translate(1322.132 1552.907)"/><g transform="translate(1355.867 1594.867)"><path class="d" d="M50.444,281.18v-4.633a1.338,1.338,0,0,1,1.338-1.338h7.1v5.973Z" transform="translate(-45.941 -254.969)"/><path class="e" d="M23.6,415.328H7.5v-3.251a4.78,4.78,0,0,1,3.886-4.7l4.164-.793,4.164.793a4.78,4.78,0,0,1,3.886,4.7Z" transform="translate(-6.831 -374.621)"/><path class="f" d="M88.185,407.381l-4.164-.793-1.339.255,2.825.538a4.78,4.78,0,0,1,3.886,4.7v3.251h2.678v-3.251a4.78,4.78,0,0,0-3.886-4.7Z" transform="translate(-75.302 -374.621)"/><path class="g" d="M50.444,327.111h8.433v2.878a4.216,4.216,0,0,1-4.216,4.216h0a4.216,4.216,0,0,1-4.216-4.216v-2.878Z" transform="translate(-45.941 -302.238)"/><path class="d" d="M208.762,281.18v-4.633a1.338,1.338,0,0,1,1.338-1.338h7.1v5.973Z" transform="translate(-190.128 -254.969)"/><path class="h" d="M273.238,275.209v5.972h2.678v-5.973Z" transform="translate(-248.849 -254.969)"/><path class="g" d="M208.762,327.111h8.433v2.878a4.216,4.216,0,0,1-4.217,4.217h0a4.217,4.217,0,0,1-4.216-4.216v-2.878Z" transform="translate(-190.128 -302.238)"/><path class="i" d="M243.884,327.111v2.878a4.217,4.217,0,0,1-2.877,4,4.211,4.211,0,0,0,1.338.219h0a4.217,4.217,0,0,0,4.216-4.216v-2.878Z" transform="translate(-219.495 -302.238)"/><path class="j" d="M340.419,412.082v3.251h-16.1v-3.251a4.78,4.78,0,0,1,3.886-4.7l4.164-.793,4.164.793a4.779,4.779,0,0,1,3.885,4.7Z" transform="translate(-295.371 -374.626)"/><path class="k" d="M336.534,407.381l-4.164-.793-1.339.255,2.825.538a4.78,4.78,0,0,1,3.886,4.7v3.251h2.678v-3.251A4.78,4.78,0,0,0,336.534,407.381Zm-8.923,4.7v3.251h-3.29v-3.251a4.775,4.775,0,0,1,1.645-3.609A4.775,4.775,0,0,1,327.61,412.077Z" transform="translate(-295.371 -374.621)"/><path class="l" d="M181.917,415.328h-16.1v-3.251a4.78,4.78,0,0,1,3.886-4.7l4.164-.793,4.164.793a4.78,4.78,0,0,1,3.886,4.7Z" transform="translate(-151.017 -374.621)"/><path class="m" d="M246.5,407.381l-4.164-.793-1.339.255,2.825.538a4.78,4.78,0,0,1,3.886,4.7v3.251h2.678v-3.251A4.78,4.78,0,0,0,246.5,407.381Z" transform="translate(-219.488 -374.621)"/><path class="d" d="M367.262,281.18v-4.633a1.338,1.338,0,0,1,1.338-1.338h7.1v5.973Z" transform="translate(-334.48 -254.969)"/><path class="h" d="M431.738,275.209v5.972h2.678v-5.973Z" transform="translate(-393.201 -254.969)"/><path class="g" d="M367.262,327.111h8.433v2.878a4.216,4.216,0,0,1-4.217,4.217h0a4.216,4.216,0,0,1-4.216-4.216v-2.878Z" transform="translate(-334.48 -302.238)"/><path class="i" d="M402.384,327.111v2.878a4.217,4.217,0,0,1-2.877,4,4.211,4.211,0,0,0,1.338.219h0a4.217,4.217,0,0,0,4.217-4.216v-2.878Z" transform="translate(-363.847 -302.238)"/><path class="n" d="M41.271,36.1l-1.565-.3a4.885,4.885,0,0,0,2.162-4.054V24.24a.669.669,0,0,0-.67-.669H34.1A2.01,2.01,0,0,0,32.1,25.578v6.173A4.885,4.885,0,0,0,34.258,35.8l-1.565.3a5.442,5.442,0,0,0-2.778,1.446A5.431,5.431,0,0,0,27.14,36.1l-1.565-.3a4.885,4.885,0,0,0,2.162-4.054V24.24a.669.669,0,0,0-.67-.669h-7.1a2.009,2.009,0,0,0-2.007,2.007v6.173A4.885,4.885,0,0,0,20.126,35.8l-1.565.3a5.431,5.431,0,0,0-2.776,1.446A5.462,5.462,0,0,0,13.009,36.1l-1.565-.3a4.885,4.885,0,0,0,2.162-4.054V24.24a.669.669,0,0,0-.67-.669H5.84a2.009,2.009,0,0,0-2.007,2.007v6.173A4.885,4.885,0,0,0,5.995,35.8l-1.565.3A5.455,5.455,0,0,0,0,41.456v3.251a.669.669,0,0,0,.67.669H45.032a.669.669,0,0,0,.669-.67V41.456A5.455,5.455,0,0,0,41.271,36.1ZM33.435,25.578a.669.669,0,0,1,.668-.668h6.426V28.2H33.435Zm0,6.173V29.543h7.094v2.208A3.551,3.551,0,0,1,36.983,35.3h0a3.551,3.551,0,0,1-3.546-3.547ZM19.3,25.578a.669.669,0,0,1,.668-.668H26.4V28.2H19.3Zm0,6.173V29.543H26.4v2.208A3.551,3.551,0,0,1,22.851,35.3h0A3.551,3.551,0,0,1,19.3,31.751ZM5.172,25.578a.669.669,0,0,1,.668-.668h6.426V28.2H5.172Zm0,6.173V29.543h7.094v2.208A3.551,3.551,0,0,1,8.72,35.3h0a3.551,3.551,0,0,1-3.546-3.547Zm8.959,9.705v2.582H1.339V41.456A4.115,4.115,0,0,1,4.68,37.418l4.039-.769,4.039.769A4.121,4.121,0,0,1,14.943,38.6a5.43,5.43,0,0,0-.812,2.857Zm16.1,2.582H15.47V41.456a4.115,4.115,0,0,1,3.341-4.038l4.039-.769,4.039.769a4.115,4.115,0,0,1,3.341,4.038Zm14.131,0H31.57V41.456a5.431,5.431,0,0,0-.812-2.858,4.1,4.1,0,0,1,2.186-1.18l4.039-.769,4.039.769a4.115,4.115,0,0,1,3.341,4.038Zm-37-23.144H38.337a3.351,3.351,0,0,0,3.347-3.347V7.348A3.351,3.351,0,0,0,38.337,4H7.364A3.351,3.351,0,0,0,4.017,7.348v10.2A3.351,3.351,0,0,0,7.364,20.893ZM5.356,7.348A2.011,2.011,0,0,1,7.364,5.339H38.337a2.011,2.011,0,0,1,2.008,2.008v10.2a2.011,2.011,0,0,1-2.008,2.008H7.364a2.011,2.011,0,0,1-2.008-2.008Z" transform="translate(0 -4)"/></g></g></g></svg>