<svg xmlns="http://www.w3.org/2000/svg" width="129.259" height="129.663" viewBox="0 0 129.259 129.663"><defs><style>.a,.n{fill:none;}.a{stroke:#4d4d4d;stroke-width:3px;}.b{fill:#0071be;}.c{fill:#4db8ff;}.d{fill:#f59f02;}.e{fill:#fbc41a;}.f{fill:#4d4d4d;}.g{fill:#212123;}.h{fill:#c7cbd1;}.i{fill:#231f20;}.j{fill:#ff7e7e;}.k{fill:#00a388;}.l{fill:#03846b;}.m{fill:#fff;}.o{stroke:none;}</style></defs><g transform="translate(-1106.965 -1346.389)"><g class="a" transform="translate(1106.965 1411.019) rotate(-45)"><rect class="o" width="91.4" height="91.4" rx="16"/><rect class="n" x="1.5" y="1.5" width="88.4" height="88.4" rx="14.5"/></g><rect class="b" width="27.313" height="27.313" rx="3" transform="translate(1173.283 1456.739) rotate(-45)"/><g transform="translate(1151.955 1390.027)"><path class="c" d="M57.9,20.686V27.93a.592.592,0,0,1-.592.592H49.587L46.768,29.88a.592.592,0,0,1-.849-.533V20.686a.592.592,0,0,1,.592-.592h10.8A.592.592,0,0,1,57.9,20.686Z" transform="translate(-17.859 -7.007)"/><path class="b" d="M57.9,20.688v7.244a.592.592,0,0,1-.592.592H49.59L46.769,29.88a.592.592,0,0,1-.848-.533v-2c10.919.426,10.428-4.942,9.718-7.25h1.669A.592.592,0,0,1,57.9,20.688Z" transform="translate(-17.859 -7.008)"/><path class="d" d="M21.191,28.561V35.34l4.861,1.535,4.861-1.535V28.561Z" transform="translate(-7.995 -10.385)"/><path class="e" d="M31.332,16.155c0-4.034-2.984-7.3-6.664-7.3S18,12.121,18,16.155s2.984,9.372,6.664,9.372S31.332,20.189,31.332,16.155Z" transform="translate(-6.723 -2.523)"/><path class="d" d="M31.957,17.576c0,4.032-2.984,9.37-6.663,9.37-2.429,0-4.56-2.332-5.719-5.073a5.545,5.545,0,0,0,4.171,2.415c3.678,0,6.663-5.337,6.663-9.37a8.073,8.073,0,0,0-.4-2.512A7.655,7.655,0,0,1,31.957,17.576Z" transform="translate(-7.35 -3.94)"/><path class="f" d="M18.534,10.073A9.566,9.566,0,0,0,28.27,8.957S27.884,12.646,30.8,14.1c0,0,4.289-8.922-2.445-9.479a9.126,9.126,0,0,0-9.351.429s-4.332,2.316-1.673,9.394C17.333,14.448,18.147,10.973,18.534,10.073Z" transform="translate(-6.111 -0.397)"/><path class="g" d="M30.8,14.1A3.94,3.94,0,0,1,30,13.575a21.3,21.3,0,0,0,.416-3.366c.015-1.193-2.518-3.178-4.138-4.325a3.183,3.183,0,0,0-2.925-.394c-2.192.791-5.951,2.577-6.818,5.731-.507-4.581,2.471-6.17,2.471-6.17a8.772,8.772,0,0,1,6.753-1.346l.291.062a9.169,9.169,0,0,1,2.311.854C35.093,5.184,30.8,14.1,30.8,14.1Z" transform="translate(-6.114 -0.397)"/><path class="h" d="M26.736,42.392,22.906,46l3.83,9.721L30.566,46Z" transform="translate(-8.679 -15.902)"/><path class="i" d="M26.537,55.821a.3.3,0,0,1-.28-.19l-3.83-9.721a.3.3,0,0,1,.074-.329l3.83-3.607a.3.3,0,0,1,.412,0l3.83,3.607a.3.3,0,0,1,.074.329l-3.83,9.721A.3.3,0,0,1,26.537,55.821Zm-3.476-9.942L26.537,54.7l3.476-8.822-3.476-3.273Z" transform="translate(-8.479 -15.703)"/><path class="j" d="M29.932,55.692l-.9-9.8a.3.3,0,0,1,.028-.156l.614-1.814-1.688-1.533L26.3,43.925l.849,1.66a.3.3,0,0,1,.059.214l-1.162,9.893h3.884Z" transform="translate(-9.932 -15.902)"/><path class="k" d="M11.673,37.192a38.189,38.189,0,0,1-5.047,4.014,9.035,9.035,0,0,0-4.074,4.98,19.216,19.216,0,0,0-.62,7.229l16.223.23Z" transform="translate(-0.279 -13.828)"/><path class="l" d="M1.933,53.418l16.227.229-.521-1.312-8.156-.116a3.143,3.143,0,0,1-3.093-3.3,16.2,16.2,0,0,1,.672-3.972,9.016,9.016,0,0,1,4.074-4.976c.409-.25.847-.548,1.284-.868l-.75-1.909A37.478,37.478,0,0,1,6.625,41.2a9.054,9.054,0,0,0-4.074,4.983A19.273,19.273,0,0,0,1.933,53.418Z" transform="translate(-0.279 -13.827)"/><path class="m" d="M24.976,39.743l3.83,3.606,2.653-6.733-.533-.651a.585.585,0,0,0-.8-.1Zm0,0-3.83,3.606-2.653-6.733.533-.651a.585.585,0,0,1,.8-.1Z" transform="translate(-6.918 -13.253)"/><path class="k" d="M35.472,37.192a38.19,38.19,0,0,0,5.047,4.014,9.035,9.035,0,0,1,4.074,4.98,19.216,19.216,0,0,1,.62,7.229l-16.223.23Z" transform="translate(-11.105 -13.828)"/><path class="l" d="M45.211,53.418l-16.227.229.521-1.312,8.156-.116a3.142,3.142,0,0,0,3.093-3.3,16.2,16.2,0,0,0-.672-3.972,9.016,9.016,0,0,0-4.074-4.976c-.409-.25-.847-.548-1.284-.868l.75-1.909A37.477,37.477,0,0,0,40.519,41.2a9.054,9.054,0,0,1,4.074,4.983A19.271,19.271,0,0,1,45.211,53.418Z" transform="translate(-11.103 -13.827)"/><g transform="translate(1.15 2.528)"><path class="n" d="M29.895,26.866a27.039,27.039,0,0,1-5.422-4.532,1.182,1.182,0,0,0-.956-.427V19.563A12.264,12.264,0,0,0,25.2,14.015a.131.131,0,0,0,.03-.048c.1-.21,2.5-5.278.787-8.271A4.338,4.338,0,0,0,22.423,3.64a10.116,10.116,0,0,0-4.6-1.112,9.318,9.318,0,0,0-5.254,1.623c-.457.277-4.586,3-1.911,10.11a.33.33,0,0,0,.048.09A12.49,12.49,0,0,0,12.6,19.923v1.984a1.18,1.18,0,0,0-.95.427l-.481.6-.012.012a36.431,36.431,0,0,1-4.935,3.925,9.679,9.679,0,0,0-4.34,5.314,20.083,20.083,0,0,0-.643,7.454.6.6,0,0,0,.589.553c10.118.008,5.149.395,32.465,0a.591.591,0,0,0,.589-.553,19.833,19.833,0,0,0-.643-7.454A9.629,9.629,0,0,0,29.895,26.866Zm-6.354-3.775.313.379c-1.75,4.453-.678,1.72-2.2,5.578-5.741-5.47.82.775-2.657-2.519,7.759-5.875-.552.417,4.52-3.42ZM18.059,38.179l-.884-2.248.7-5.969a.889.889,0,0,0-.138-.589l-.607-1.184.932-.872.98.92-.469,1.383a.926.926,0,0,0-.066.427l.517,5.686ZM16.22,29.042l.451.884-.427,3.643-1.31-3.312Zm3.486.968L20,29.144l1.178,1.112L20,33.244ZM13.178,5.184a.244.244,0,0,0,.054-.03A8.12,8.12,0,0,1,17.825,3.73a8.908,8.908,0,0,1,4.112,1.016.655.655,0,0,0,.258.084A3.211,3.211,0,0,1,24.972,6.29c.805,1.407.421,3.546-.054,5.121-.174.571-.361,1.064-.5,1.425a3.5,3.5,0,0,1-.517-.463,4.714,4.714,0,0,1-1.13-2.807,5.621,5.621,0,0,1-.006-.944.607.607,0,0,0-.307-.589.628.628,0,0,0-.295-.072c-.269,0-.383.143-.6.295a8.484,8.484,0,0,1-5.091,1.671,8.756,8.756,0,0,1-3.775-.787.619.619,0,0,0-.475-.03.609.609,0,0,0-.349.331,22.122,22.122,0,0,0-.7,2.32c-.048-.222-.084-.439-.114-.643C10.419,6.765,13.046,5.257,13.178,5.184Zm-1.292,8.68v-.012c.216-.9.607-2.458.89-3.378a10.913,10.913,0,0,0,3.691.655,9.574,9.574,0,0,0,5.1-1.437A5.517,5.517,0,0,0,24,14.009c-.178,3.51-2.762,8.4-6.059,8.4-1.563,0-3.042-1.16-4.148-2.807a11.3,11.3,0,0,1-1.01-1.863A10.737,10.737,0,0,1,11.886,13.864Zm6.059,9.744a5.975,5.975,0,0,0,4.37-2.356v1.28l-4.256,3.21L13.8,22.532V21.5A5.8,5.8,0,0,0,17.945,23.608ZM12.553,23.1l.042.03,4.52,3.408-2.651,2.513c-4.385-11.1.495,1.253-2.206-5.584ZM2.394,39a18.335,18.335,0,0,1,.631-6.462,8.476,8.476,0,0,1,3.811-4.64,34.253,34.253,0,0,0,4.5-3.5c1.329,3.366,4.653,11.8,5.831,14.793l.006.018Zm31.323,0-14.769.21.006-.018L24.779,24.4a34.362,34.362,0,0,0,4.5,3.5,8.425,8.425,0,0,1,3.811,4.64A18.335,18.335,0,0,1,33.718,39Z" transform="translate(-1.15 -2.528)"/><path class="n" d="M56.906,19.1h-10.8a1.193,1.193,0,0,0-1.19,1.19V28.95a1.191,1.191,0,0,0,.361.86,1.205,1.205,0,0,0,.83.337,1.232,1.232,0,0,0,.523-.12l2.693-1.3h7.58a1.2,1.2,0,0,0,1.2-1.2V20.288A1.194,1.194,0,0,0,56.906,19.1Zm-7.718,8.427a.545.545,0,0,0-.258.06l-2.807,1.352L46.111,20.3l10.79-.012.006,7.237Z" transform="translate(-18.61 -9.137)"/></g><g transform="translate(29.842 14.919)"><path class="m" d="M51.109,24.044H49.334a.451.451,0,0,1,0-.9h1.775a.451.451,0,1,1,0,.9Z" transform="translate(-48.883 -23.142)"/></g><g transform="translate(33.393 14.919)"><path class="m" d="M57.34,24.044h-2.1a.451.451,0,1,1,0-.9h2.1a.451.451,0,1,1,0,.9Z" transform="translate(-54.791 -23.142)"/></g><g transform="translate(23.194 36.142)"><path class="m" d="M40.84,59.351H38.274a.451.451,0,0,1,0-.9H40.84a.451.451,0,1,1,0,.9Z" transform="translate(-37.823 -58.45)"/></g><g transform="translate(28.209 36.142)"><path class="m" d="M48.985,59.351H46.617a.451.451,0,0,1,0-.9h2.367a.451.451,0,0,1,0,.9Z" transform="translate(-46.167 -58.45)"/></g></g></g></svg>