<svg xmlns="http://www.w3.org/2000/svg" width="129.259" height="129.663" viewBox="0 0 129.259 129.663"><defs><style>.a,.h{fill:none;}.a{stroke:#4d4d4d;stroke-width:3px;}.b{fill:#0071be;}.c{fill:#4db8ff;}.d{fill:#a9bcd0;}.e{fill:#c5dbf2;}.f{fill:#fff;}.g{fill:#325973;}.i{fill:#d1d1d1;}.j{stroke:none;}</style></defs><g transform="translate(-1456.965 -1346.389)"><g class="a" transform="translate(1456.965 1411.019) rotate(-45)"><rect class="j" width="91.4" height="91.4" rx="16"/><rect class="h" x="1.5" y="1.5" width="88.4" height="88.4" rx="14.5"/></g><rect class="b" width="27.313" height="27.313" rx="3" transform="translate(1523.283 1456.739) rotate(-45)"/><g transform="translate(1498 1388)"><rect class="c" width="15" height="19" transform="translate(3 5)"/><rect class="d" width="24" height="19" transform="translate(18 5)"/><rect class="e" width="11" height="9" transform="translate(3 29)"/><rect class="b" width="19" height="14" transform="translate(21 7)"/><path class="f" d="M41.111,17h1.261a2.111,2.111,0,0,1,2.111,2.111v3.373H39V19.111A2.111,2.111,0,0,1,41.111,17Z" transform="translate(-11.635 -4.088)"/><ellipse class="f" cx="2" cy="2.5" rx="2" ry="2.5" transform="translate(28 9)"/><rect class="e" width="11" height="9" transform="translate(17 29)"/><rect class="e" width="11" height="9" transform="translate(31 29)"/><path class="g" d="M51.111,50h1.261a2.111,2.111,0,0,1,2.111,2.111v3.373H49V52.111A2.111,2.111,0,0,1,51.111,50Z" transform="translate(-14.779 -14.465)"/><path class="g" d="M51.111,50h1.261a2.111,2.111,0,0,1,2.111,2.111v3.373H49V52.111A2.111,2.111,0,0,1,51.111,50Z" transform="translate(-28.779 -14.465)"/><path class="g" d="M51.111,50h1.261a2.111,2.111,0,0,1,2.111,2.111v3.373H49V52.111A2.111,2.111,0,0,1,51.111,50Z" transform="translate(-42.779 -14.465)"/><circle class="g" cx="2" cy="2" r="2" transform="translate(35 32)"/><circle class="g" cx="2" cy="2" r="2" transform="translate(21 32)"/><circle class="g" cx="2" cy="2" r="2" transform="translate(7 32)"/><path class="h" d="M42.447,4H2.686A.686.686,0,0,0,2,4.686v19.2a.686.686,0,0,0,.686.686H42.447a.686.686,0,0,0,.686-.686V4.686A.686.686,0,0,0,42.447,4ZM17.082,23.2H3.371V5.371H17.082Zm24.68,0H18.453V5.371H41.762Z"/><rect class="b" width="9" height="1" transform="translate(5 7)"/><rect class="b" width="7" height="1" transform="translate(5 11)"/><rect class="b" width="4" height="1" transform="translate(5 15)"/><path class="h" d="M6,50.9v3.373a.686.686,0,0,0,.686.686H12.17a.686.686,0,0,0,.686-.686V50.9a2.783,2.783,0,0,0-1.371-2.386,2.742,2.742,0,1,0-4.113,0A2.783,2.783,0,0,0,6,50.9Zm3.428-5.539a1.371,1.371,0,1,1-1.371,1.371A1.371,1.371,0,0,1,9.428,45.357ZM7.371,50.9A1.426,1.426,0,0,1,8.8,49.47h1.261A1.426,1.426,0,0,1,11.484,50.9v2.687H7.371Z" transform="translate(-1.258 -12.564)"/><path class="h" d="M2.686,49.6H4.057V48.227H3.371V41.371h9.6v6.855h-.686V49.6h1.371a.686.686,0,0,0,.686-.686V40.686A.686.686,0,0,0,13.654,40H2.686A.686.686,0,0,0,2,40.686v8.227A.686.686,0,0,0,2.686,49.6Zm16.453.055v3.373a.686.686,0,0,0,.686.686h5.484a.686.686,0,0,0,.686-.686V49.653a2.783,2.783,0,0,0-1.371-2.386,2.742,2.742,0,1,0-4.113,0,2.783,2.783,0,0,0-1.371,2.386Zm3.428-5.539A1.371,1.371,0,1,1,21.2,45.484,1.371,1.371,0,0,1,22.566,44.113ZM20.51,49.653a1.426,1.426,0,0,1,1.426-1.426H23.2a1.426,1.426,0,0,1,1.426,1.426V52.34H20.51Z" transform="translate(0 -11.32)"/><path class="h" d="M33.283,48.227V49.6h1.371a.686.686,0,0,0,.686-.686V40.686A.686.686,0,0,0,34.654,40H23.686a.686.686,0,0,0-.686.686v8.227a.686.686,0,0,0,.686.686h1.371V48.227h-.686V41.371h9.6v6.855Zm6.855,1.426v3.373a.686.686,0,0,0,.686.686h5.484a.686.686,0,0,0,.686-.686V49.653a2.783,2.783,0,0,0-1.371-2.386,2.742,2.742,0,1,0-4.113,0A2.783,2.783,0,0,0,40.139,49.653Zm3.428-5.539A1.371,1.371,0,1,1,42.2,45.484,1.371,1.371,0,0,1,43.566,44.113ZM41.51,49.653a1.426,1.426,0,0,1,1.426-1.426H44.2a1.426,1.426,0,0,1,1.426,1.426V52.34H41.51Z" transform="translate(-6.604 -11.32)"/><path class="h" d="M53.768,30.866H42.8a.686.686,0,0,0-.686.686v8.227a.686.686,0,0,0,.686.686H44.17V39.093h-.686V32.238h9.6v6.855H52.4v1.371h1.371a.686.686,0,0,0,.686-.686V31.552A.686.686,0,0,0,53.768,30.866ZM43.484,15.51a2.742,2.742,0,1,0-4.113,0A2.783,2.783,0,0,0,38,17.9v3.373a.686.686,0,0,0,.686.686H44.17a.686.686,0,0,0,.686-.686V17.9a2.783,2.783,0,0,0-1.371-2.386Zm-2.057-3.154a1.371,1.371,0,1,1-1.371,1.371A1.371,1.371,0,0,1,41.428,12.357Zm2.057,8.227H39.371V17.9A1.426,1.426,0,0,1,40.8,16.47h1.261A1.426,1.426,0,0,1,43.484,17.9Z" transform="translate(-11.32 -2.187)"/><path class="i" d="M28.686,23.082h19.2a.686.686,0,0,0,.686-.686V8.686A.686.686,0,0,0,47.881,8h-19.2A.686.686,0,0,0,28,8.686V22.4A.686.686,0,0,0,28.686,23.082Zm.686-13.711H47.2v12.34H29.371Z" transform="translate(-8.176 -1.258)"/></g></g></svg>